# xmcd
#
# Track frame offsets:
#	150
#	27539
#	49656
#	75572
#	101010
#	120930
#	132261
#	157514
#	180064
#	193872
#	208771
#	230229
#	247751
#	259476
#	279438
#	291073
#	304140
#
# Disc length: 4234 seconds
#
# Revision: 0
# Processed by: cddbd v1.5.2PL0 Copyright (c) Steve Scherf et al.
# Submitted via: EasyCDDAExtractor 11.9.9.666
#
DISCID=e3108811
DTITLE=El Cazador Novato - Exitos Llaneros de Siempre CD2
DYEAR=1900
DGENRE=Llaneras
TTITLE0=La verdad desnuda
TTITLE1=El cazador novato
TTITLE2=El venado del espinero
TTITLE3=Plegaria humana
TTITLE4=Evitar no es cobardía
TTITLE5=El que la debe la paga
TTITLE6=El viaje del cazador
TTITLE7=El candidato
TTITLE8=La sayona
TTITLE9=Esto se lo lleva el diablo
TTITLE10=Cuando yo sea presidente
TTITLE11=El cazador de Caracas
TTITLE12=Ya me cansé compadre
TTITLE13=Recordamos viejos tiempos
TTITLE14=Libertad danos el cambio
TTITLE15=A mí solo se me nota
TTITLE16=Cuídate del matrimonio
EXTD=
EXTT0=
EXTT1=
EXTT2=
EXTT3=
EXTT4=
EXTT5=
EXTT6=
EXTT7=
EXTT8=
EXTT9=
EXTT10=
EXTT11=
EXTT12=
EXTT13=
EXTT14=
EXTT15=
EXTT16=
PLAYORDER=
